# Blender 4.0.2
# www.blender.org
mtllib traintrack.mtl
o Cube.002
v -2.000000 -0.150000 0.100000
v -2.000000 0.050000 0.100000
v -2.000000 -0.150000 -0.100000
v -2.000000 0.050000 -0.100000
v 2.000000 -0.150000 0.100000
v 2.000000 0.050000 0.100000
v 2.000000 -0.150000 -0.100000
v 2.000000 0.050000 -0.100000
v 1.100000 0.200000 -5.500000
v 1.100000 0.000000 -5.500000
v 1.100000 0.200000 5.500000
v 1.100000 0.000000 5.500000
v 0.900000 0.200000 -5.500000
v 0.900000 0.000000 -5.500000
v 0.900000 0.200000 5.500000
v 0.900000 0.000000 5.500000
v -0.900000 0.200000 -5.500000
v -0.900000 0.000000 -5.500000
v -0.900000 0.200000 5.500000
v -0.900000 0.000000 5.500000
v -1.100000 0.200000 -5.500000
v -1.100000 0.000000 -5.500000
v -1.100000 0.200000 5.500000
v -1.100000 0.000000 5.500000
v -2.000000 -0.150000 -0.900000
v -2.000000 0.050000 -0.900000
v -2.000000 -0.150000 -1.100000
v -2.000000 0.050000 -1.100000
v 2.000000 -0.150000 -0.900000
v 2.000000 0.050000 -0.900000
v 2.000000 -0.150000 -1.100000
v 2.000000 0.050000 -1.100000
v -2.000000 -0.150000 -1.900000
v -2.000000 0.050000 -1.900000
v -2.000000 -0.150000 -2.100000
v -2.000000 0.050000 -2.100000
v 2.000000 -0.150000 -1.900000
v 2.000000 0.050000 -1.900000
v 2.000000 -0.150000 -2.100000
v 2.000000 0.050000 -2.100000
v -2.000000 -0.150000 -2.900000
v -2.000000 0.050000 -2.900000
v -2.000000 -0.150000 -3.100000
v -2.000000 0.050000 -3.100000
v 2.000000 -0.150000 -2.900000
v 2.000000 0.050000 -2.900000
v 2.000000 -0.150000 -3.100000
v 2.000000 0.050000 -3.100000
v -2.000000 -0.150000 -3.900000
v -2.000000 0.050000 -3.900000
v -2.000000 -0.150000 -4.100000
v -2.000000 0.050000 -4.100000
v 2.000000 -0.150000 -3.900000
v 2.000000 0.050000 -3.900000
v 2.000000 -0.150000 -4.100000
v 2.000000 0.050000 -4.100000
v -2.000000 -0.150000 -4.900001
v -2.000000 0.050000 -4.900001
v -2.000000 -0.150000 -5.100000
v -2.000000 0.050000 -5.100000
v 2.000000 -0.150000 -4.900001
v 2.000000 0.050000 -4.900001
v 2.000000 -0.150000 -5.100000
v 2.000000 0.050000 -5.100000
v -2.000000 -0.150000 1.100000
v -2.000000 0.050000 1.100000
v -2.000000 -0.150000 0.900000
v -2.000000 0.050000 0.900000
v 2.000000 -0.150000 1.100000
v 2.000000 0.050000 1.100000
v 2.000000 -0.150000 0.900000
v 2.000000 0.050000 0.900000
v -2.000000 -0.150000 2.100000
v -2.000000 0.050000 2.100000
v -2.000000 -0.150000 1.900000
v -2.000000 0.050000 1.900000
v 2.000000 -0.150000 2.100000
v 2.000000 0.050000 2.100000
v 2.000000 -0.150000 1.900000
v 2.000000 0.050000 1.900000
v -2.000000 -0.150000 3.100000
v -2.000000 0.050000 3.100000
v -2.000000 -0.150000 2.900000
v -2.000000 0.050000 2.900000
v 2.000000 -0.150000 3.100000
v 2.000000 0.050000 3.100000
v 2.000000 -0.150000 2.900000
v 2.000000 0.050000 2.900000
v -2.000000 -0.150000 4.100000
v -2.000000 0.050000 4.100000
v -2.000000 -0.150000 3.900000
v -2.000000 0.050000 3.900000
v 2.000000 -0.150000 4.100000
v 2.000000 0.050000 4.100000
v 2.000000 -0.150000 3.900000
v 2.000000 0.050000 3.900000
v -2.000000 -0.150000 5.100000
v -2.000000 0.050000 5.100000
v -2.000000 -0.150000 4.900001
v -2.000000 0.050000 4.900001
v 2.000000 -0.150000 5.100000
v 2.000000 0.050000 5.100000
v 2.000000 -0.150000 4.900001
v 2.000000 0.050000 4.900001
v 0.900000 0.000000 -4.500000
v 0.900000 0.000000 -3.500000
v 0.900000 0.000000 -2.500000
v 0.900000 0.000000 -1.500000
v 0.900000 0.000000 -0.500000
v 0.900000 0.000000 0.500000
v 0.900000 0.000000 1.500000
v 0.900000 0.000000 2.500000
v 0.900000 0.000000 3.500000
v 0.900000 0.000000 4.500000
v 1.100000 0.200000 -4.500000
v 1.100000 0.200000 -3.500000
v 1.100000 0.200000 -2.500000
v 1.100000 0.200000 -1.500000
v 1.100000 0.200000 -0.500000
v 1.100000 0.200000 0.500000
v 1.100000 0.200000 1.500000
v 1.100000 0.200000 2.500000
v 1.100000 0.200000 3.500000
v 1.100000 0.200000 4.500000
v 0.900000 0.200000 4.500000
v 0.900000 0.200000 3.500000
v 0.900000 0.200000 2.500000
v 0.900000 0.200000 1.500000
v 0.900000 0.200000 0.500000
v 0.900000 0.200000 -0.500000
v 0.900000 0.200000 -1.500000
v 0.900000 0.200000 -2.500000
v 0.900000 0.200000 -3.500000
v 0.900000 0.200000 -4.500000
v 1.100000 0.000000 4.500000
v 1.100000 0.000000 3.500000
v 1.100000 0.000000 2.500000
v 1.100000 0.000000 1.500000
v 1.100000 0.000000 0.500000
v 1.100000 0.000000 -0.500000
v 1.100000 0.000000 -1.500000
v 1.100000 0.000000 -2.500000
v 1.100000 0.000000 -3.500000
v 1.100000 0.000000 -4.500000
v -1.100000 0.000000 -4.500000
v -1.100000 0.000000 -3.500000
v -1.100000 0.000000 -2.500000
v -1.100000 0.000000 -1.500000
v -1.100000 0.000000 -0.500000
v -1.100000 0.000000 0.500000
v -1.100000 0.000000 1.500000
v -1.100000 0.000000 2.500000
v -1.100000 0.000000 3.500000
v -1.100000 0.000000 4.500000
v -0.900000 0.200000 -4.500000
v -0.900000 0.200000 -3.500000
v -0.900000 0.200000 -2.500000
v -0.900000 0.200000 -1.500000
v -0.900000 0.200000 -0.500000
v -0.900000 0.200000 0.500000
v -0.900000 0.200000 1.500000
v -0.900000 0.200000 2.500000
v -0.900000 0.200000 3.500000
v -0.900000 0.200000 4.500000
v -1.100000 0.200000 4.500000
v -1.100000 0.200000 3.500000
v -1.100000 0.200000 2.500000
v -1.100000 0.200000 1.500000
v -1.100000 0.200000 0.500000
v -1.100000 0.200000 -0.500000
v -1.100000 0.200000 -1.500000
v -1.100000 0.200000 -2.500000
v -1.100000 0.200000 -3.500000
v -1.100000 0.200000 -4.500000
v -0.900000 0.000000 4.500000
v -0.900000 0.000000 3.500000
v -0.900000 0.000000 2.500000
v -0.900000 0.000000 1.500000
v -0.900000 0.000000 0.500000
v -0.900000 0.000000 -0.500000
v -0.900000 0.000000 -1.500000
v -0.900000 0.000000 -2.500000
v -0.900000 0.000000 -3.500000
v -0.900000 0.000000 -4.500000
vn -1.0000 -0.0000 -0.0000
vn -0.0000 -0.0000 -1.0000
vn 1.0000 -0.0000 -0.0000
vn -0.0000 -0.0000 1.0000
vn -0.0000 -1.0000 -0.0000
vn -0.0000 1.0000 -0.0000
vt 0.375000 0.000000
vt 0.625000 0.000000
vt 0.625000 0.250000
vt 0.375000 0.250000
vt 0.625000 0.500000
vt 0.375000 0.500000
vt 0.625000 0.750000
vt 0.375000 0.750000
vt 0.625000 1.000000
vt 0.375000 1.000000
vt 0.125000 0.500000
vt 0.125000 0.750000
vt 0.875000 0.500000
vt 0.875000 0.750000
vt 0.253906 0.367543
vt 0.378906 0.367543
vt 0.378906 0.378906
vt 0.253906 0.378906
vt 0.128906 0.378906
vt 0.253906 0.503906
vt 0.128906 0.503906
vt 0.128906 0.117543
vt 0.253906 0.117543
vt 0.253906 0.128906
vt 0.128906 0.128906
vt 0.003906 0.367543
vt 0.128906 0.367543
vt 0.003906 0.378906
vt 0.253906 0.253906
vt 0.128906 0.253906
vt 0.253906 0.265270
vt 0.128906 0.265270
vt 0.253906 0.276634
vt 0.128906 0.276634
vt 0.253906 0.287997
vt 0.128906 0.287997
vt 0.253906 0.299361
vt 0.128906 0.299361
vt 0.253906 0.310724
vt 0.128906 0.310724
vt 0.253906 0.322088
vt 0.128906 0.322088
vt 0.253906 0.333452
vt 0.128906 0.333452
vt 0.253906 0.344815
vt 0.128906 0.344815
vt 0.253906 0.356179
vt 0.128906 0.356179
vt 0.003906 0.253906
vt 0.003906 0.265270
vt 0.003906 0.276634
vt 0.003906 0.287997
vt 0.003906 0.299361
vt 0.003906 0.310724
vt 0.003906 0.322088
vt 0.003906 0.333452
vt 0.003906 0.344815
vt 0.003906 0.356179
vt 0.128906 0.003906
vt 0.253906 0.003906
vt 0.253906 0.015270
vt 0.128906 0.015270
vt 0.253906 0.026634
vt 0.128906 0.026634
vt 0.253906 0.037997
vt 0.128906 0.037997
vt 0.253906 0.049361
vt 0.128906 0.049361
vt 0.253906 0.060724
vt 0.128906 0.060724
vt 0.253906 0.072088
vt 0.128906 0.072088
vt 0.253906 0.083452
vt 0.128906 0.083452
vt 0.253906 0.094815
vt 0.128906 0.094815
vt 0.253906 0.106179
vt 0.128906 0.106179
vt 0.378906 0.253906
vt 0.378906 0.265270
vt 0.378906 0.276634
vt 0.378906 0.287997
vt 0.378906 0.299361
vt 0.378906 0.310724
vt 0.378906 0.322088
vt 0.378906 0.333452
vt 0.378906 0.344815
vt 0.378906 0.356179
s 0
usemtl Material
f 1/1/1 2/2/1 4/3/1 3/4/1
f 3/4/2 4/3/2 8/5/2 7/6/2
f 7/6/3 8/5/3 6/7/3 5/8/3
f 5/8/4 6/7/4 2/9/4 1/10/4
f 3/11/5 7/6/5 5/8/5 1/12/5
f 8/5/6 4/13/6 2/14/6 6/7/6
f 124/15/6 125/16/6 15/17/6 11/18/6
f 12/19/4 11/18/4 15/20/4 16/21/4
f 105/22/1 134/23/1 13/24/1 14/25/1
f 114/26/5 135/27/5 12/19/5 16/28/5
f 135/27/3 124/15/3 11/18/3 12/19/3
f 14/25/2 13/24/2 9/29/2 10/30/2
f 164/15/6 165/16/6 23/17/6 19/18/6
f 20/19/4 19/18/4 23/20/4 24/21/4
f 145/22/1 174/23/1 21/24/1 22/25/1
f 154/26/5 175/27/5 20/19/5 24/28/5
f 175/27/3 164/15/3 19/18/3 20/19/3
f 22/25/2 21/24/2 17/29/2 18/30/2
f 25/1/1 26/2/1 28/3/1 27/4/1
f 27/4/2 28/3/2 32/5/2 31/6/2
f 31/6/3 32/5/3 30/7/3 29/8/3
f 29/8/4 30/7/4 26/9/4 25/10/4
f 27/11/5 31/6/5 29/8/5 25/12/5
f 32/5/6 28/13/6 26/14/6 30/7/6
f 33/1/1 34/2/1 36/3/1 35/4/1
f 35/4/2 36/3/2 40/5/2 39/6/2
f 39/6/3 40/5/3 38/7/3 37/8/3
f 37/8/4 38/7/4 34/9/4 33/10/4
f 35/11/5 39/6/5 37/8/5 33/12/5
f 40/5/6 36/13/6 34/14/6 38/7/6
f 41/1/1 42/2/1 44/3/1 43/4/1
f 43/4/2 44/3/2 48/5/2 47/6/2
f 47/6/3 48/5/3 46/7/3 45/8/3
f 45/8/4 46/7/4 42/9/4 41/10/4
f 43/11/5 47/6/5 45/8/5 41/12/5
f 48/5/6 44/13/6 42/14/6 46/7/6
f 49/1/1 50/2/1 52/3/1 51/4/1
f 51/4/2 52/3/2 56/5/2 55/6/2
f 55/6/3 56/5/3 54/7/3 53/8/3
f 53/8/4 54/7/4 50/9/4 49/10/4
f 51/11/5 55/6/5 53/8/5 49/12/5
f 56/5/6 52/13/6 50/14/6 54/7/6
f 57/1/1 58/2/1 60/3/1 59/4/1
f 59/4/2 60/3/2 64/5/2 63/6/2
f 63/6/3 64/5/3 62/7/3 61/8/3
f 61/8/4 62/7/4 58/9/4 57/10/4
f 59/11/5 63/6/5 61/8/5 57/12/5
f 64/5/6 60/13/6 58/14/6 62/7/6
f 65/1/1 66/2/1 68/3/1 67/4/1
f 67/4/2 68/3/2 72/5/2 71/6/2
f 71/6/3 72/5/3 70/7/3 69/8/3
f 69/8/4 70/7/4 66/9/4 65/10/4
f 67/11/5 71/6/5 69/8/5 65/12/5
f 72/5/6 68/13/6 66/14/6 70/7/6
f 73/1/1 74/2/1 76/3/1 75/4/1
f 75/4/2 76/3/2 80/5/2 79/6/2
f 79/6/3 80/5/3 78/7/3 77/8/3
f 77/8/4 78/7/4 74/9/4 73/10/4
f 75/11/5 79/6/5 77/8/5 73/12/5
f 80/5/6 76/13/6 74/14/6 78/7/6
f 81/1/1 82/2/1 84/3/1 83/4/1
f 83/4/2 84/3/2 88/5/2 87/6/2
f 87/6/3 88/5/3 86/7/3 85/8/3
f 85/8/4 86/7/4 82/9/4 81/10/4
f 83/11/5 87/6/5 85/8/5 81/12/5
f 88/5/6 84/13/6 82/14/6 86/7/6
f 89/1/1 90/2/1 92/3/1 91/4/1
f 91/4/2 92/3/2 96/5/2 95/6/2
f 95/6/3 96/5/3 94/7/3 93/8/3
f 93/8/4 94/7/4 90/9/4 89/10/4
f 91/11/5 95/6/5 93/8/5 89/12/5
f 96/5/6 92/13/6 90/14/6 94/7/6
f 97/1/1 98/2/1 100/3/1 99/4/1
f 99/4/2 100/3/2 104/5/2 103/6/2
f 103/6/3 104/5/3 102/7/3 101/8/3
f 101/8/4 102/7/4 98/9/4 97/10/4
f 99/11/5 103/6/5 101/8/5 97/12/5
f 104/5/6 100/13/6 98/14/6 102/7/6
f 18/30/3 17/29/3 155/31/3 184/32/3
f 184/32/3 155/31/3 156/33/3 183/34/3
f 183/34/3 156/33/3 157/35/3 182/36/3
f 182/36/3 157/35/3 158/37/3 181/38/3
f 181/38/3 158/37/3 159/39/3 180/40/3
f 180/40/3 159/39/3 160/41/3 179/42/3
f 179/42/3 160/41/3 161/43/3 178/44/3
f 178/44/3 161/43/3 162/45/3 177/46/3
f 177/46/3 162/45/3 163/47/3 176/48/3
f 176/48/3 163/47/3 164/15/3 175/27/3
f 22/49/5 18/30/5 184/32/5 145/50/5
f 145/50/5 184/32/5 183/34/5 146/51/5
f 146/51/5 183/34/5 182/36/5 147/52/5
f 147/52/5 182/36/5 181/38/5 148/53/5
f 148/53/5 181/38/5 180/40/5 149/54/5
f 149/54/5 180/40/5 179/42/5 150/55/5
f 150/55/5 179/42/5 178/44/5 151/56/5
f 151/56/5 178/44/5 177/46/5 152/57/5
f 152/57/5 177/46/5 176/48/5 153/58/5
f 153/58/5 176/48/5 175/27/5 154/26/5
f 24/59/1 23/60/1 165/61/1 154/62/1
f 154/62/1 165/61/1 166/63/1 153/64/1
f 153/64/1 166/63/1 167/65/1 152/66/1
f 152/66/1 167/65/1 168/67/1 151/68/1
f 151/68/1 168/67/1 169/69/1 150/70/1
f 150/70/1 169/69/1 170/71/1 149/72/1
f 149/72/1 170/71/1 171/73/1 148/74/1
f 148/74/1 171/73/1 172/75/1 147/76/1
f 147/76/1 172/75/1 173/77/1 146/78/1
f 146/78/1 173/77/1 174/23/1 145/22/1
f 17/29/6 21/79/6 174/80/6 155/31/6
f 155/31/6 174/80/6 173/81/6 156/33/6
f 156/33/6 173/81/6 172/82/6 157/35/6
f 157/35/6 172/82/6 171/83/6 158/37/6
f 158/37/6 171/83/6 170/84/6 159/39/6
f 159/39/6 170/84/6 169/85/6 160/41/6
f 160/41/6 169/85/6 168/86/6 161/43/6
f 161/43/6 168/86/6 167/87/6 162/45/6
f 162/45/6 167/87/6 166/88/6 163/47/6
f 163/47/6 166/88/6 165/16/6 164/15/6
f 10/30/3 9/29/3 115/31/3 144/32/3
f 144/32/3 115/31/3 116/33/3 143/34/3
f 143/34/3 116/33/3 117/35/3 142/36/3
f 142/36/3 117/35/3 118/37/3 141/38/3
f 141/38/3 118/37/3 119/39/3 140/40/3
f 140/40/3 119/39/3 120/41/3 139/42/3
f 139/42/3 120/41/3 121/43/3 138/44/3
f 138/44/3 121/43/3 122/45/3 137/46/3
f 137/46/3 122/45/3 123/47/3 136/48/3
f 136/48/3 123/47/3 124/15/3 135/27/3
f 14/49/5 10/30/5 144/32/5 105/50/5
f 105/50/5 144/32/5 143/34/5 106/51/5
f 106/51/5 143/34/5 142/36/5 107/52/5
f 107/52/5 142/36/5 141/38/5 108/53/5
f 108/53/5 141/38/5 140/40/5 109/54/5
f 109/54/5 140/40/5 139/42/5 110/55/5
f 110/55/5 139/42/5 138/44/5 111/56/5
f 111/56/5 138/44/5 137/46/5 112/57/5
f 112/57/5 137/46/5 136/48/5 113/58/5
f 113/58/5 136/48/5 135/27/5 114/26/5
f 16/59/1 15/60/1 125/61/1 114/62/1
f 114/62/1 125/61/1 126/63/1 113/64/1
f 113/64/1 126/63/1 127/65/1 112/66/1
f 112/66/1 127/65/1 128/67/1 111/68/1
f 111/68/1 128/67/1 129/69/1 110/70/1
f 110/70/1 129/69/1 130/71/1 109/72/1
f 109/72/1 130/71/1 131/73/1 108/74/1
f 108/74/1 131/73/1 132/75/1 107/76/1
f 107/76/1 132/75/1 133/77/1 106/78/1
f 106/78/1 133/77/1 134/23/1 105/22/1
f 9/29/6 13/79/6 134/80/6 115/31/6
f 115/31/6 134/80/6 133/81/6 116/33/6
f 116/33/6 133/81/6 132/82/6 117/35/6
f 117/35/6 132/82/6 131/83/6 118/37/6
f 118/37/6 131/83/6 130/84/6 119/39/6
f 119/39/6 130/84/6 129/85/6 120/41/6
f 120/41/6 129/85/6 128/86/6 121/43/6
f 121/43/6 128/86/6 127/87/6 122/45/6
f 122/45/6 127/87/6 126/88/6 123/47/6
f 123/47/6 126/88/6 125/16/6 124/15/6
